<svg xmlns="http://www.w3.org/2000/svg" version="1.1" xmlns:xlink="http://www.w3.org/1999/xlink" width="100%" height="100%"><svg width="100%" height="100%" viewBox="0 0 5417 1417" version="1.1" xmlns="http://www.w3.org/2000/svg" xmlns:xlink="http://www.w3.org/1999/xlink" xml:space="preserve" xmlns:serif="http://www.serif.com/" style="fill-rule:evenodd;clip-rule:evenodd;stroke-linejoin:round;stroke-miterlimit:2;"><g id="SvgjsG1003"><path d="M448.049,325.882c-72,-0 -138.353,18.354 -197.647,53.65c-60,35.297 -107.294,83.3 -142.588,142.599c-36,60.004 -53.647,125.656 -53.647,197.661c-0,72.711 17.647,138.362 53.647,197.661c35.294,60.004 82.588,107.301 142.588,143.304c59.294,35.296 125.647,52.945 197.647,52.945c49.412,-0 96.706,-8.471 141.177,-26.12c43.764,-16.942 84,-41.65 118.588,-72.711l-0,98.831l134.118,-0l-0,-393.91c-0.706,-73.417 -19.059,-139.069 -54.353,-198.367c-35.295,-59.299 -82.589,-106.596 -141.883,-141.893c-59.294,-35.296 -125.647,-53.65 -197.647,-53.65Zm0,134.127c48,-0 91.765,11.295 131.294,34.59c38.824,23.296 70.589,55.063 93.883,93.889c23.294,39.532 34.588,83.3 34.588,131.304c-0,48.003 -11.294,91.771 -34.588,131.303c-23.294,39.532 -55.059,70.593 -93.883,93.889c-39.529,23.296 -83.294,35.297 -131.294,35.297c-48,-0 -91.765,-12.001 -131.294,-35.297c-39.529,-23.296 -70.588,-54.357 -93.882,-93.889c-23.295,-39.532 -34.589,-83.3 -34.589,-131.303c0,-48.004 11.294,-91.772 34.589,-131.304c23.294,-38.826 54.353,-70.593 93.882,-93.889c39.529,-23.295 83.294,-34.59 131.294,-34.59Z" style="fill:#a80000;fill-rule:nonzero;"></path><path d="M1271.11,325.882c-64.941,-0 -124.235,14.824 -179.294,43.767c-55.059,28.238 -100.941,67.064 -137.647,116.479c-36,48.709 -60,104.478 -71.294,166.6c-3.53,24.002 -5.648,46.592 -5.648,67.064c0.706,24.707 2.824,46.591 5.648,67.063c11.294,62.828 35.294,118.597 72,167.306c36.705,48.709 81.882,87.536 136.941,116.479c55.059,28.943 114.353,43.062 179.294,43.062c51.529,-0 100.235,-9.177 146.118,-28.238c45.176,-18.354 86.117,-44.473 121.411,-76.946l-82.588,-105.184c-23.294,24.002 -51.529,42.356 -82.588,56.475c-31.765,13.412 -66.353,20.472 -102.353,20.472c-60.706,-0 -113.647,-18.355 -159.53,-54.357c-45.882,-36.003 -76.235,-81.888 -91.764,-139.069l639.529,0c3.53,-21.884 5.647,-43.768 5.647,-67.063c-0.705,-24.002 -2.823,-46.592 -5.647,-67.064c-11.294,-62.122 -35.294,-117.891 -72,-166.6c-36.706,-49.415 -81.882,-88.241 -136.941,-116.479c-55.059,-28.943 -115.059,-43.767 -179.294,-43.767Zm-0,134.127c60.706,-0 113.647,17.648 159.529,53.651c45.177,36.002 76.236,82.594 91.765,139.068l-502.588,0c15.529,-56.474 45.882,-103.066 91.764,-139.068c45.883,-36.003 98.824,-53.651 159.53,-53.651Z" style="fill:#a80000;fill-rule:nonzero;"></path><path d="M2094.17,325.882c-72,-0 -138.353,17.648 -197.647,53.65c-59.294,35.297 -106.589,82.594 -141.883,141.893c-35.294,58.592 -53.647,124.95 -54.353,197.661l0,662.164l134.118,0l-0,-366.379c34.588,31.061 74.118,55.769 118.588,72.711c44.471,17.649 91.059,26.12 141.177,26.12c72,-0 138.353,-17.649 197.647,-52.945c60,-36.003 107.294,-83.3 142.588,-143.304c36,-59.299 53.647,-124.95 53.647,-197.661c0,-72.005 -17.647,-137.657 -53.647,-197.661c-35.294,-59.299 -82.588,-107.302 -142.588,-142.599c-59.294,-35.296 -125.647,-53.65 -197.647,-53.65Zm-0,134.127c48,-0 91.764,11.295 131.294,34.59c38.823,23.296 70.588,55.063 93.882,93.889c23.294,39.532 34.589,83.3 34.589,131.304c-0,48.003 -11.295,91.771 -34.589,131.303c-23.294,39.532 -55.059,70.593 -93.882,93.889c-39.53,23.296 -83.294,35.297 -131.294,35.297c-48,-0 -91.765,-12.001 -131.294,-35.297c-39.53,-23.296 -70.589,-54.357 -93.883,-93.889c-23.294,-39.532 -34.588,-83.3 -34.588,-131.303c-0,-48.004 11.294,-91.772 34.588,-131.304c23.294,-38.826 54.353,-70.593 93.883,-93.889c39.529,-23.295 83.294,-34.59 131.294,-34.59Z" style="fill:#a80000;fill-rule:nonzero;"></path><path d="M2917.23,325.882c-72,-0 -138.353,18.354 -197.648,53.65c-60,35.297 -107.294,83.3 -142.588,142.599c-36,60.004 -53.647,125.656 -53.647,197.661c0,72.711 17.647,138.362 53.647,197.661c35.294,60.004 82.588,107.301 142.588,143.304c59.295,35.296 125.648,52.945 197.648,52.945c49.411,-0 96.705,-8.471 141.176,-26.12c43.765,-16.942 84,-41.65 118.588,-72.711l0,98.831l134.118,-0l0,-393.91c-0.706,-73.417 -19.059,-139.069 -54.353,-198.367c-35.294,-59.299 -82.588,-106.596 -141.882,-141.893c-59.294,-35.296 -125.647,-53.65 -197.647,-53.65Zm-0,134.127c48,-0 91.764,11.295 131.294,34.59c38.823,23.296 70.588,55.063 93.882,93.889c23.294,39.532 34.588,83.3 34.588,131.304c0,48.003 -11.294,91.771 -34.588,131.303c-23.294,39.532 -55.059,70.593 -93.882,93.889c-39.53,23.296 -83.294,35.297 -131.294,35.297c-48,-0 -91.765,-12.001 -131.295,-35.297c-39.529,-23.296 -70.588,-54.357 -93.882,-93.889c-23.294,-39.532 -34.588,-83.3 -34.588,-131.303c-0,-48.004 11.294,-91.772 34.588,-131.304c23.294,-38.826 54.353,-70.593 93.882,-93.889c39.53,-23.295 83.295,-34.59 131.295,-34.59Z" style="fill:#a80000;fill-rule:nonzero;"></path><path d="M3346.4,325.882l-0,787.82l134.118,-0l-0,-787.82l-134.118,-0Zm-0,-267.549l-0,134.127l134.118,0l-0,-134.127l-134.118,0Z" style="fill:#a80000;fill-rule:nonzero;"></path><path d="M3515.81,325.882l-0,787.82l134.117,-0l0,-393.91c0,-48.004 11.295,-91.772 34.589,-131.304c23.294,-38.826 54.353,-70.593 93.882,-93.889c39.529,-23.295 83.294,-34.59 131.294,-34.59c48,-0 91.765,11.295 130.588,34.59c39.53,23.296 70.589,54.357 93.883,93.183c22.588,38.827 34.588,82.594 35.294,130.598l-0,395.322l134.118,-0l-0,-393.91c-0,-72.005 -17.647,-138.363 -53.647,-197.661c-35.295,-59.299 -83.295,-107.302 -142.589,-142.599c-59.294,-35.296 -125.647,-53.65 -197.647,-53.65c-50.117,-0 -96.706,9.177 -141.176,26.119c-44.471,17.648 -84,41.65 -118.589,72.711l0,-98.83l-134.117,-0Z" style="fill:#a80000;fill-rule:nonzero;"></path><path d="M4338.87,58.333l-0,663.576c1.411,72.711 19.058,138.363 54.353,197.661c35.294,58.593 82.588,105.89 141.882,141.187c60,35.296 125.647,52.945 197.647,52.945l0,-133.421c-48,-0 -91.765,-12.001 -131.294,-35.297c-38.824,-23.296 -69.883,-54.357 -93.177,-93.183c-23.294,-38.826 -34.588,-82.594 -35.294,-131.303l0,-67.77l259.765,0l0,-133.421l-259.765,-0l0,-460.974l-134.117,0Z" style="fill:#a80000;fill-rule:nonzero;"></path><path d="M5068.05,326.588c-6.353,-0 -12.706,-0.706 -19.059,-0.706c-28.941,-0 -56.47,2.823 -83.294,8.471c-32.47,6.353 -62.118,19.766 -89.647,38.826c-27.529,20.472 -48.706,45.886 -63.529,76.241c-14.824,30.355 -22.589,62.122 -23.295,95.301c1.412,39.532 12,74.828 31.765,105.183c19.059,30.355 45.883,53.651 79.059,69.182c29.647,12.707 60,23.295 91.059,32.473c31.059,9.177 60.706,17.648 89.647,24.707c4.941,1.412 9.176,2.824 14.118,3.53c69.176,17.648 112.235,31.767 129.176,43.062c24.706,16.236 36.706,38.12 36.706,66.357c0,31.061 -14.118,58.593 -41.647,81.888c-27.529,23.296 -70.588,35.297 -128.471,35.297c-28.941,0 -55.058,-2.824 -77.647,-9.177c-23.294,-6.353 -42.353,-16.236 -57.176,-30.355c-17.647,-17.648 -30.353,-36.003 -39.53,-56.475c-9.176,-20.472 -15.529,-39.532 -18.353,-58.592l-129.882,20.472c14.824,79.77 47.294,139.775 98.118,181.425c33.176,26.119 70.588,42.355 112.235,50.121c41.647,7.765 76.941,11.295 107.294,11.295l5.647,-0c28.941,-0 57.883,-2.824 86.118,-9.178c27.529,-5.647 52.235,-12.706 72.706,-21.883c24.706,-10.589 46.588,-23.296 65.647,-39.533c18.353,-16.236 32.47,-31.767 41.647,-48.003c10.588,-18.354 19.765,-39.532 26.823,-63.534c7.059,-23.296 10.589,-42.356 11.295,-57.18c-0,-43.768 -10.589,-80.477 -31.059,-110.126c-26.824,-33.884 -63.53,-60.004 -110.118,-77.652c-46.588,-17.649 -95.294,-31.767 -146.823,-43.768c-47.295,-10.589 -89.648,-23.296 -128.471,-38.12c-34.588,-17.649 -52.941,-33.885 -55.765,-49.416c-2.823,-16.236 -4.235,-26.119 -4.235,-30.355c-0,-22.59 11.294,-43.768 33.882,-62.828c24.706,-19.06 65.647,-28.237 123.53,-28.237c24.706,0 47.294,2.118 66.353,7.059c19.058,4.942 35.294,12.707 47.294,24.708c26.117,26.825 42.353,56.475 48.706,88.947l128.47,-17.648c-4.941,-21.178 -10.588,-41.65 -16.941,-62.122c-7.059,-20.472 -16.235,-38.12 -27.529,-54.357c-20.471,-30.355 -54.353,-55.062 -100.942,-74.123c-25.411,-9.883 -49.411,-16.236 -72,-18.354c-22.588,-2.118 -43.058,-3.529 -62.823,-3.529l-19.059,0.706Z" style="fill:#a80000;fill-rule:nonzero;"></path></g><g id="SvgjsG1002"></g></svg><style>@media (prefers-color-scheme: light) { :root { filter: none; } }
@media (prefers-color-scheme: dark) { :root { filter: none; } }
</style></svg>