<?xml version="1.0" encoding="UTF-8" standalone="no"?>
<!DOCTYPE svg PUBLIC "-//W3C//DTD SVG 1.1//EN" "http://www.w3.org/Graphics/SVG/1.1/DTD/svg11.dtd">
<svg width="100%" height="100%" viewBox="0 0 5417 1417" version="1.1" xmlns="http://www.w3.org/2000/svg" xmlns:xlink="http://www.w3.org/1999/xlink" xml:space="preserve" xmlns:serif="http://www.serif.com/" style="fill-rule:evenodd;clip-rule:evenodd;stroke-linejoin:round;stroke-miterlimit:2;">
    <g id="Layer1">
        <path d="M448.049,325.882C376.049,325.882 309.696,344.236 250.402,379.532C190.402,414.829 143.108,462.832 107.814,522.131C71.814,582.135 54.167,647.787 54.167,719.792C54.167,792.503 71.814,858.154 107.814,917.453C143.108,977.457 190.402,1024.75 250.402,1060.76C309.696,1096.05 376.049,1113.7 448.049,1113.7C497.461,1113.7 544.755,1105.23 589.226,1087.58C632.99,1070.64 673.226,1045.93 707.814,1014.87L707.814,1113.7L841.932,1113.7L841.932,719.792C841.226,646.375 822.873,580.723 787.579,521.425C752.284,462.126 704.99,414.829 645.696,379.532C586.402,344.236 520.049,325.882 448.049,325.882ZM448.049,460.009C496.049,460.009 539.814,471.304 579.343,494.599C618.167,517.895 649.932,549.662 673.226,588.488C696.52,628.02 707.814,671.788 707.814,719.792C707.814,767.795 696.52,811.563 673.226,851.095C649.932,890.627 618.167,921.688 579.343,944.984C539.814,968.28 496.049,980.281 448.049,980.281C400.049,980.281 356.284,968.28 316.755,944.984C277.226,921.688 246.167,890.627 222.873,851.095C199.578,811.563 188.284,767.795 188.284,719.792C188.284,671.788 199.578,628.02 222.873,588.488C246.167,549.662 277.226,517.895 316.755,494.599C356.284,471.304 400.049,460.009 448.049,460.009Z" style="fill:rgb(168,0,0);fill-rule:nonzero;"/>
        <path d="M1271.11,325.882C1206.17,325.882 1146.88,340.706 1091.82,369.649C1036.76,397.887 990.875,436.713 954.169,486.128C918.169,534.837 894.169,590.606 882.875,652.728C879.345,676.73 877.227,699.32 877.227,719.792C877.933,744.499 880.051,766.383 882.875,786.855C894.169,849.683 918.169,905.452 954.875,954.161C991.58,1002.87 1036.76,1041.7 1091.82,1070.64C1146.88,1099.58 1206.17,1113.7 1271.11,1113.7C1322.64,1113.7 1371.35,1104.53 1417.23,1085.46C1462.4,1067.11 1503.35,1040.99 1538.64,1008.52L1456.05,903.334C1432.76,927.336 1404.52,945.69 1373.46,959.809C1341.7,973.221 1307.11,980.281 1271.11,980.281C1210.4,980.281 1157.46,961.926 1111.58,925.924C1065.7,889.921 1035.35,844.036 1019.82,786.855L1659.35,786.855C1662.88,764.971 1664.99,743.087 1664.99,719.792C1664.29,695.79 1662.17,673.2 1659.35,652.728C1648.05,590.606 1624.05,534.837 1587.35,486.128C1550.64,436.713 1505.46,397.887 1450.4,369.649C1395.35,340.706 1335.35,325.882 1271.11,325.882ZM1271.11,460.009C1331.82,460.009 1384.76,477.657 1430.64,513.66C1475.82,549.662 1506.88,596.254 1522.4,652.728L1019.82,652.728C1035.35,596.254 1065.7,549.662 1111.58,513.66C1157.46,477.657 1210.4,460.009 1271.11,460.009Z" style="fill:rgb(168,0,0);fill-rule:nonzero;"/>
        <path d="M2094.17,325.882C2022.17,325.882 1955.82,343.53 1896.52,379.532C1837.23,414.829 1789.93,462.126 1754.64,521.425C1719.35,580.017 1700.99,646.375 1700.29,719.086L1700.29,1381.25L1834.4,1381.25L1834.4,1014.87C1868.99,1045.93 1908.52,1070.64 1952.99,1087.58C1997.46,1105.23 2044.05,1113.7 2094.17,1113.7C2166.17,1113.7 2232.52,1096.05 2291.82,1060.76C2351.82,1024.75 2399.11,977.457 2434.41,917.453C2470.41,858.154 2488.05,792.503 2488.05,719.792C2488.05,647.787 2470.41,582.135 2434.41,522.131C2399.11,462.832 2351.82,414.829 2291.82,379.532C2232.52,344.236 2166.17,325.882 2094.17,325.882ZM2094.17,460.009C2142.17,460.009 2185.93,471.304 2225.46,494.599C2264.29,517.895 2296.05,549.662 2319.35,588.488C2342.64,628.02 2353.93,671.788 2353.93,719.792C2353.93,767.795 2342.64,811.563 2319.35,851.095C2296.05,890.627 2264.29,921.688 2225.46,944.984C2185.93,968.28 2142.17,980.281 2094.17,980.281C2046.17,980.281 2002.4,968.28 1962.88,944.984C1923.35,921.688 1892.29,890.627 1868.99,851.095C1845.7,811.563 1834.4,767.795 1834.4,719.792C1834.4,671.788 1845.7,628.02 1868.99,588.488C1892.29,549.662 1923.35,517.895 1962.88,494.599C2002.4,471.304 2046.17,460.009 2094.17,460.009Z" style="fill:rgb(168,0,0);fill-rule:nonzero;"/>
        <path d="M2917.23,325.882C2845.23,325.882 2778.88,344.236 2719.58,379.532C2659.58,414.829 2612.29,462.832 2576.99,522.131C2540.99,582.135 2523.35,647.787 2523.35,719.792C2523.35,792.503 2540.99,858.154 2576.99,917.453C2612.29,977.457 2659.58,1024.75 2719.58,1060.76C2778.88,1096.05 2845.23,1113.7 2917.23,1113.7C2966.64,1113.7 3013.93,1105.23 3058.41,1087.58C3102.17,1070.64 3142.41,1045.93 3176.99,1014.87L3176.99,1113.7L3311.11,1113.7L3311.11,719.792C3310.41,646.375 3292.05,580.723 3256.76,521.425C3221.47,462.126 3174.17,414.829 3114.88,379.532C3055.58,344.236 2989.23,325.882 2917.23,325.882ZM2917.23,460.009C2965.23,460.009 3008.99,471.304 3048.52,494.599C3087.35,517.895 3119.11,549.662 3142.41,588.488C3165.7,628.02 3176.99,671.788 3176.99,719.792C3176.99,767.795 3165.7,811.563 3142.41,851.095C3119.11,890.627 3087.35,921.688 3048.52,944.984C3008.99,968.28 2965.23,980.281 2917.23,980.281C2869.23,980.281 2825.47,968.28 2785.93,944.984C2746.41,921.688 2715.35,890.627 2692.05,851.095C2668.76,811.563 2657.47,767.795 2657.47,719.792C2657.47,671.788 2668.76,628.02 2692.05,588.488C2715.35,549.662 2746.41,517.895 2785.93,494.599C2825.47,471.304 2869.23,460.009 2917.23,460.009Z" style="fill:rgb(168,0,0);fill-rule:nonzero;"/>
        <path d="M3346.4,325.882L3346.4,1113.7L3480.52,1113.7L3480.52,325.882L3346.4,325.882ZM3346.4,58.333L3346.4,192.46L3480.52,192.46L3480.52,58.333L3346.4,58.333Z" style="fill:rgb(168,0,0);fill-rule:nonzero;"/>
        <path d="M3515.81,325.882L3515.81,1113.7L3649.93,1113.7L3649.93,719.792C3649.93,671.788 3661.22,628.02 3684.52,588.488C3707.81,549.662 3738.87,517.895 3778.4,494.599C3817.93,471.304 3861.69,460.009 3909.69,460.009C3957.69,460.009 4001.46,471.304 4040.28,494.599C4079.81,517.895 4110.87,548.956 4134.16,587.782C4156.75,626.609 4168.75,670.376 4169.46,718.38L4169.46,1113.7L4303.57,1113.7L4303.57,719.792C4303.57,647.787 4285.93,581.429 4249.93,522.131C4214.63,462.832 4166.63,414.829 4107.34,379.532C4048.05,344.236 3981.69,325.882 3909.69,325.882C3859.58,325.882 3812.99,335.059 3768.52,352.001C3724.05,369.649 3684.52,393.651 3649.93,424.712L3649.93,325.882L3515.81,325.882Z" style="fill:rgb(168,0,0);fill-rule:nonzero;"/>
        <path d="M4338.87,58.333L4338.87,721.909C4340.28,794.62 4357.93,860.272 4393.22,919.57C4428.52,978.163 4475.81,1025.46 4535.11,1060.76C4595.11,1096.05 4660.75,1113.7 4732.75,1113.7L4732.75,980.281C4684.75,980.281 4640.99,968.28 4601.46,944.984C4562.63,921.688 4531.57,890.627 4508.28,851.801C4484.99,812.975 4473.69,769.207 4472.99,720.498L4472.99,652.728L4732.75,652.728L4732.75,519.307L4472.99,519.307L4472.99,58.333L4338.87,58.333Z" style="fill:rgb(168,0,0);fill-rule:nonzero;"/>
        <path d="M5068.05,326.588C5061.7,326.588 5055.34,325.882 5048.99,325.882C5020.05,325.882 4992.52,328.705 4965.7,334.353C4933.23,340.706 4903.58,354.119 4876.05,373.179C4848.52,393.651 4827.34,419.065 4812.52,449.42C4797.7,479.775 4789.93,511.542 4789.23,544.721C4790.64,584.253 4801.23,619.549 4820.99,649.904C4840.05,680.259 4866.87,703.555 4900.05,719.086C4929.7,731.793 4960.05,742.381 4991.11,751.559C5022.17,760.736 5051.82,769.207 5080.76,776.266C5085.7,777.678 5089.93,779.09 5094.87,779.796C5164.05,797.444 5207.11,811.563 5224.05,822.858C5248.76,839.094 5260.76,860.978 5260.76,889.215C5260.76,920.276 5246.64,947.808 5219.11,971.103C5191.58,994.399 5148.52,1006.4 5090.64,1006.4C5061.7,1006.4 5035.58,1003.58 5012.99,997.223C4989.7,990.87 4970.64,980.987 4955.82,966.868C4938.17,949.22 4925.46,930.865 4916.28,910.393C4907.11,889.921 4900.76,870.861 4897.93,851.801L4768.05,872.273C4782.87,952.043 4815.34,1012.05 4866.17,1053.7C4899.34,1079.82 4936.76,1096.05 4978.4,1103.82C5020.05,1111.58 5055.34,1115.11 5085.7,1115.11L5091.34,1115.11C5120.28,1115.11 5149.23,1112.29 5177.46,1105.94C5204.99,1100.29 5229.7,1093.23 5250.17,1084.05C5274.87,1073.46 5296.76,1060.76 5315.82,1044.52C5334.17,1028.28 5348.28,1012.75 5357.46,996.517C5368.05,978.163 5377.23,956.985 5384.28,932.983C5391.34,909.687 5394.87,890.627 5395.58,875.803C5395.58,832.035 5384.99,795.326 5364.52,765.677C5337.7,731.793 5300.99,705.673 5254.4,688.025C5207.82,670.376 5159.11,656.258 5107.58,644.257C5060.28,633.668 5017.93,620.961 4979.11,606.137C4944.52,588.488 4926.17,572.252 4923.34,556.721C4920.52,540.485 4919.11,530.602 4919.11,526.366C4919.11,503.776 4930.4,482.598 4952.99,463.538C4977.7,444.478 5018.64,435.301 5076.52,435.301C5101.23,435.301 5123.82,437.419 5142.87,442.36C5161.93,447.302 5178.17,455.067 5190.17,467.068C5216.28,493.893 5232.52,523.543 5238.87,556.015L5367.34,538.367C5362.4,517.189 5356.76,496.717 5350.4,476.245C5343.34,455.773 5334.17,438.125 5322.87,421.888C5302.4,391.533 5268.52,366.826 5221.93,347.765C5196.52,337.882 5172.52,331.529 5149.93,329.411C5127.34,327.293 5106.87,325.882 5087.11,325.882L5068.05,326.588Z" style="fill:rgb(168,0,0);fill-rule:nonzero;"/>
    </g>
</svg>
