<?xml version="1.0" encoding="UTF-8" standalone="no"?>
<svg
   width="16960268"
   height="13101717"
   viewBox="0 0 16960268 13101717"
   version="1.1"
   xml:space="preserve"
   style="clip-rule:evenodd;fill-rule:evenodd;stroke-linejoin:round;stroke-miterlimit:2"
   id="svg1"
   xmlns="http://www.w3.org/2000/svg"
   xmlns:svg="http://www.w3.org/2000/svg"><g
     id="g1"
     transform="translate(-7053458.5,-1262310)"><path
       style="fill:#000000"
       d="M 4126.527,3339.6912 V 3193.8139 H 2724.4426 1322.3581 v -35.4106 -35.4105 l 1401.0428,-1.0478 1401.0427,-1.0478 1.0478,-1405.2095 1.0478,-1405.20945 h 35.4045 35.4044 l 2.0956,2810.41895 146.9193,1.095 146.9194,1.095 c -6.3254,255.7651 80.5015,359.818 -184.4636,361.3957 l -182.2918,1.0855 z m 291.6669,-37.5439 v -108.3334 h -110.4168 -110.4167 v 108.3334 108.3335 h 110.4167 110.4168 z m -3078.2959,-242.7085 1.2101,-34.375 h 1340.6261 1340.626 V 1665.6877 306.31158 h 35.4167 35.4167 c -12.4399,926.72422 17.093,1854.27322 -2.5291,2780.91142 -2.2992,5.9916 -127.5283,6.5908 -1377.2529,6.5908 H 1338.6878 Z"
       id="path1" /></g><defs
     id="defs1" /></svg>
