<?xml version="1.0" encoding="UTF-8" standalone="no"?><!DOCTYPE svg PUBLIC "-//W3C//DTD SVG 1.1//EN" "http://www.w3.org/Graphics/SVG/1.1/DTD/svg11.dtd"><svg width="100%" height="100%" viewBox="0 0 422 122" version="1.1" xmlns="http://www.w3.org/2000/svg" xmlns:xlink="http://www.w3.org/1999/xlink" xml:space="preserve" xmlns:serif="http://www.serif.com/" style="fill-rule:evenodd;clip-rule:evenodd;stroke-linecap:round;stroke-linejoin:round;stroke-miterlimit:1.5;"><path d="M420.625,18.625l0,84c0,9.934 -8.066,18 -18,18l-384,0c-9.934,0 -18,-8.066 -18,-18l0,-84c0,-9.934 8.066,-18 18,-18l384,0c9.934,0 18,8.066 18,18Z" style="fill:#620012;stroke:#fff;stroke-width:1.25px;"/><g transform="matrix(41.6667,0,0,41.6667,361.292,69.3548)"></g><text x="59.958px" y="69.355px" style="font-family:'Poppins-Light', 'Poppins';font-weight:300;font-size:41.667px;fill:#fff;">Send Message</text><path d="M405.9,22.544l-0,76.162c-0,5.519 -4.481,10 -10.001,10l-370.548,0c-5.52,0 -10.001,-4.481 -10.001,-10l0,-76.162c0,-5.519 4.481,-10 10.001,-10l370.548,-0c5.52,-0 10.001,4.481 10.001,10Z" style="fill:none;stroke:#fff;stroke-width:2.6px;"/></svg>